<svg width="40" height="40" viewBox="0 0 40 40" fill="none" xmlns="http://www.w3.org/2000/svg">
<circle cx="20" cy="20" r="20" fill="#F6F6F6"/>
<path fill-rule="evenodd" clip-rule="evenodd" d="M11 12C11 11.4477 11.4477 11 12 11H21C21.2652 11 21.5196 11.1054 21.7071 11.2929L29.7938 19.3795C30.8794 20.4716 30.8794 22.2355 29.7938 23.3276L29.7917 23.3297L23.3391 29.7822C22.8139 30.3078 22.101 30.6035 21.3581 30.6035C20.6149 30.6035 19.9023 30.308 19.3771 29.7823L11.2933 21.7075C11.1055 21.5199 11 21.2654 11 21V12ZM13 13V20.5855L20.792 28.3688C20.9421 28.5191 21.1457 28.6035 21.3581 28.6035C21.5704 28.6035 21.774 28.519 21.924 28.3689L28.3754 21.9175L28.3762 21.9166C28.6852 21.6049 28.6852 21.1022 28.3762 20.7905L28.3754 20.7896L20.5858 13H13Z" fill="#21475A"/>
<path fill-rule="evenodd" clip-rule="evenodd" d="M17.25 18.5C17.9404 18.5 18.5 17.9404 18.5 17.25C18.5 16.5596 17.9404 16 17.25 16C16.5596 16 16 16.5596 16 17.25C16 17.9404 16.5596 18.5 17.25 18.5Z" fill="#21475A"/>
</svg>
