<svg width="52" height="41" viewBox="0 0 52 41" fill="none" xmlns="http://www.w3.org/2000/svg">
<path d="M50.5218 12.5362C48.459 12.2344 46.3103 12.4069 44.3335 12.9673C44.2905 12.9673 44.2045 12.9242 44.1616 12.9242C44.8921 11.7601 45.4938 10.5098 45.9235 9.2164C46.0095 8.9146 45.8376 8.6128 45.5797 8.52657C45.2789 8.44034 44.9781 8.6128 44.8921 8.87148C44.2905 10.7254 43.3021 12.4931 42.0128 14.0021C41.9699 14.0452 41.9269 14.1314 41.9269 14.1745C41.6261 14.347 41.2823 14.4763 40.9814 14.6057C41.6261 13.226 42.0988 11.7601 42.3136 10.2511C42.3566 9.94934 42.1418 9.64754 41.8409 9.60443C41.5401 9.56131 41.2393 9.77688 41.1963 10.0787C40.9385 11.8464 40.3368 13.5709 39.4773 15.0799C39.4773 15.1231 39.4773 15.1231 39.4343 15.1662C39.1765 15.2524 38.9187 15.3386 38.6178 15.4249C39.0046 14.4763 39.2625 13.4847 39.3484 12.45C39.3914 12.1482 39.1335 11.8895 38.8327 11.8464C38.5319 11.8033 38.274 12.0619 38.2311 12.3637C38.1451 13.5278 37.8013 14.6919 37.2426 15.7267C32.2146 16.7183 26.542 15.7698 22.2445 13.0967C18.6346 10.8979 15.5834 7.44871 12.5322 2.275C12.3603 2.01631 12.0595 1.93008 11.7587 2.05942C11.5009 2.23188 11.4149 2.5768 11.5438 2.83548C13.3917 5.98282 15.2396 8.52657 17.2595 10.5529C16.8297 12.4931 16.0132 14.347 14.7669 15.9422C14.5091 15.8129 14.2083 15.6835 13.9504 15.5973C13.7785 15.5111 13.6066 15.468 13.4777 15.3817C12.6182 14.9937 11.8017 14.6919 11.0711 14.5195C9.13725 14.0452 7.24637 14.2608 5.82821 15.0799C5.01169 15.5542 4.36707 16.244 3.85137 16.8476C3.72245 16.977 3.4646 17.2788 3.50758 17.7099C3.55055 18.1842 3.93732 18.486 4.10922 18.6153C4.1522 18.6584 4.19517 18.6584 4.23815 18.7015C3.6365 19.0465 3.07783 19.6501 2.56213 20.4261C2.17536 20.9866 1.87454 21.5902 1.61669 22.1938C1.57372 22.3231 1.40182 22.6681 1.57372 23.013C1.70265 23.2717 1.91751 23.401 2.04644 23.4872C1.78859 23.8321 1.57372 24.2202 1.35885 24.6082C1.2729 24.8238 1.05803 25.2118 1.14398 25.6429C1.18695 25.9879 1.40182 26.2897 1.61669 26.5052C1.65967 26.5483 1.65967 26.5483 1.70264 26.5915V26.6346C1.65967 26.7639 1.57372 26.9364 1.48777 27.0657C1.31587 27.4106 1.101 27.7987 1.14398 28.316C1.18695 28.6178 1.35885 28.8765 1.53074 29.1352C1.74562 29.437 2.00347 29.6957 2.21834 29.9544L1.40182 31.2047C1.2729 31.4203 1.05802 31.7221 1.01505 32.1101C0.929101 32.6706 1.22992 33.1448 1.4448 33.5329C1.74562 33.964 2.08941 34.3951 2.47618 34.7401C2.30429 35.9473 3.03486 37.1976 4.1522 37.6287C4.58194 37.8012 5.01169 37.8443 5.39846 37.8443C5.65631 37.8443 5.91416 37.8874 6.172 37.8874C6.81662 37.8874 7.46124 37.8443 8.10586 37.7581C8.70751 37.6718 9.35212 37.4994 9.78187 36.9389C9.99674 36.6371 10.0827 36.3353 10.1686 36.0766C10.1686 36.0335 10.2116 35.9473 10.2116 35.9041C10.5124 35.861 10.8133 35.7748 11.1141 35.5592C11.4579 35.3005 11.6727 34.9125 11.8017 34.5676C11.8446 34.4814 11.8876 34.3951 11.9306 34.3089C12.2314 34.3951 12.5322 34.4383 12.8331 34.4383C13.7785 34.4383 14.638 34.0071 15.1107 33.2742C15.3686 33.4466 15.6264 33.6191 15.9272 33.7484C16.0132 33.7915 16.1421 33.8778 16.357 33.8778C16.4429 33.8778 16.5289 33.8778 16.6148 33.8347C16.9157 33.7484 17.0446 33.4897 17.0876 33.3604C17.8181 31.8945 18.3768 30.3424 18.7206 28.7041C18.8495 28.7472 18.9355 28.7903 19.0644 28.8334C19.1933 28.8765 19.3652 28.9196 19.5801 28.9196C19.666 28.9196 19.752 28.9196 19.795 28.8765C20.0958 28.7903 20.6115 28.5316 20.6544 27.4969C20.7404 25.0393 20.4825 22.5818 19.8379 20.2105C19.6231 19.4345 19.3652 18.5722 18.7636 17.9686C17.9041 17.0632 16.6578 16.7614 15.6694 16.5458C16.8297 15.0368 17.6462 13.2691 18.1189 11.4583C19.2363 12.45 20.3536 13.3123 21.5569 14.0883C22.0726 14.4332 22.6313 14.6919 23.1899 14.9937C23.1899 14.9937 23.1899 15.0368 23.2329 15.0368C24.823 16.3303 26.1122 18.0117 26.9717 19.8656C26.7139 20.0381 26.499 20.2537 26.2841 20.4261C26.1552 20.5555 26.0263 20.6848 25.8973 20.771C25.1238 21.3746 24.5222 21.9351 24.0065 22.4956C22.6743 24.0046 21.9867 25.7292 22.0726 27.4106C22.1156 28.3591 22.4164 29.2645 22.7172 29.9975C22.8032 30.1699 22.9321 30.5149 23.2759 30.6873C23.4048 30.7304 23.5337 30.7735 23.6627 30.7735C23.9635 30.7735 24.2213 30.6442 24.3503 30.558C24.3932 30.558 24.4362 30.5149 24.4792 30.5149C24.5222 31.2047 24.78 31.9807 25.2098 32.7999C25.5536 33.4035 25.8973 33.964 26.3271 34.4814C26.413 34.6107 26.6279 34.8694 27.0147 34.9125C27.0577 34.9125 27.0577 34.9125 27.1006 34.9125C27.3585 34.9125 27.5734 34.7832 27.6593 34.6969C27.8742 35.085 28.0891 35.473 28.3039 35.8179C28.4329 35.9904 28.6907 36.3784 29.1204 36.5077C29.2494 36.5509 29.3783 36.5509 29.5072 36.5509C29.7221 36.5509 29.894 36.5077 30.0659 36.4646C30.1089 36.4646 30.1089 36.4646 30.1518 36.4215C30.1518 36.4215 30.1518 36.4646 30.1948 36.4646C30.2808 36.5509 30.4097 36.6802 30.4956 36.8527C30.7105 37.1545 30.9684 37.5425 31.4411 37.7149C31.613 37.7581 31.7419 37.8012 31.9138 37.8012C32.0427 37.8012 32.2146 37.8012 32.3435 37.7581C32.6873 37.7149 33.0311 37.6287 33.3749 37.4994L34.1055 38.7928C34.2344 39.0084 34.4063 39.3533 34.7501 39.5689C35.0509 39.7844 35.4377 39.8707 35.7815 39.8707C35.9534 39.8707 36.0823 39.8707 36.2113 39.8275C36.7269 39.7844 37.2426 39.6551 37.7583 39.4826C38.2311 39.8275 38.7897 40 39.3484 40C39.993 40 40.6376 39.7844 41.1104 39.3533C41.4542 39.0515 41.669 38.7066 41.8839 38.3617C42.3566 37.5856 42.7434 36.7664 43.0442 35.9041C43.2591 35.3437 43.388 34.6538 43.1302 34.0502C43.0012 33.7053 42.7434 33.4897 42.5285 33.2742C42.4855 33.2311 42.4426 33.1879 42.3996 33.1448C42.4856 32.843 42.5715 32.5412 42.4855 32.1963C42.3996 31.7652 42.1847 31.4203 41.9699 31.1185C41.9269 31.0322 41.8409 30.946 41.798 30.8598C42.7004 29.9544 42.9583 28.5747 42.3996 27.5831C42.6574 27.4106 42.9583 27.2813 43.1731 27.0657C43.2591 26.9795 43.5169 26.807 43.5599 26.5052C43.6029 26.2034 43.431 25.9879 43.388 25.9016C42.4426 24.5651 41.3252 23.3579 40.079 22.28C40.1649 22.1938 40.2509 22.1507 40.3368 22.0645C40.4657 21.9351 40.6806 21.7627 40.7666 21.4177C40.8525 21.1159 40.8525 20.5123 39.95 19.995C37.8443 18.7447 35.5237 17.8393 33.1601 17.3219C33.0741 17.3219 32.9882 17.2788 32.9022 17.2788C32.9452 17.2788 33.0311 17.2788 33.0741 17.2788C34.879 17.2788 36.641 17.0632 38.403 16.6321C38.5749 16.5889 38.7038 16.5458 38.8757 16.5027C40.079 16.8045 41.2823 17.1494 42.4426 17.5806C43.0012 17.7961 43.6459 18.0548 43.9467 18.5291C44.0326 18.7015 44.2475 18.7878 44.4194 18.7878C44.5054 18.7878 44.6343 18.7447 44.7202 18.7015C44.9781 18.5291 45.064 18.1842 44.8921 17.9255C44.4194 17.1494 43.5599 16.8045 42.8293 16.5027C42.1418 16.244 41.4971 16.0285 40.8095 15.856C41.1963 15.6835 41.6261 15.5111 42.0128 15.3386C42.0558 15.3386 42.0988 15.3386 42.1418 15.3386C44.2045 15.1662 46.3533 15.5542 48.2441 16.5458C48.3301 16.5889 48.416 16.5889 48.502 16.5889C48.7169 16.5889 48.8888 16.4596 48.9747 16.2871C49.1036 16.0285 49.0177 15.6835 48.7169 15.5542C47.2987 14.8213 45.7086 14.3901 44.1186 14.2608C44.2045 14.2177 44.2905 14.1745 44.3764 14.1314C46.3103 13.5709 48.3731 13.4416 50.3499 13.7003C50.6507 13.7434 50.9515 13.5278 50.9945 13.226C51.0375 12.838 50.8226 12.5793 50.5218 12.5362ZM4.71086 17.6237C5.18358 17.1063 5.74225 16.5027 6.42985 16.0716C7.59016 15.3817 9.18022 15.2093 10.8562 15.6404C11.5438 15.8129 12.2314 16.0716 13.0479 16.4165C13.1769 16.5027 13.3917 16.5458 13.5636 16.6321C13.8645 16.7614 14.2083 16.8907 14.5091 17.0632C14.5091 17.1063 14.5521 17.1063 14.5521 17.1494C14.638 17.1925 14.724 17.2357 14.7669 17.2357C14.8099 17.2788 14.8099 17.2788 14.8529 17.3219C14.8958 17.365 14.8958 17.4081 14.9388 17.4512C15.2826 18.0548 14.8529 19.4345 14.3372 20.0812C13.6926 20.8573 12.6612 21.2884 11.6728 21.2022C10.9852 21.1591 10.3405 20.8573 9.7389 20.5555C8.01991 19.7363 6.3439 18.7878 4.75384 17.7099C4.75384 17.6668 4.71086 17.6668 4.71086 17.6237ZM7.93396 29.5663C7.67611 29.437 7.50422 29.3077 7.37529 29.1783C7.24637 29.0059 7.16042 28.7041 7.07447 28.4454C6.85959 27.4537 6.73067 26.4621 6.77365 25.4705C6.77365 25.3843 6.8596 25.1687 6.90257 24.9962C7.16042 24.9531 7.41826 24.91 7.63314 24.8238C7.63314 25.0825 7.71909 25.3411 7.80504 25.5998C7.97694 25.9879 8.32073 26.2465 8.57858 26.4621C9.35212 27.0226 10.2976 27.4106 11.243 27.5831C11.329 27.5831 11.4579 27.6262 11.5438 27.6262C11.5438 28.0573 11.6298 28.5316 11.8017 29.049C11.8446 29.2214 11.9306 29.3939 12.0165 29.5663C11.8876 29.7388 11.5438 29.8681 11.0281 29.9113C9.95377 29.9544 8.8794 29.9544 7.93396 29.5663ZM2.39024 25.7292C2.34726 25.6861 2.21834 25.5567 2.21834 25.4705C2.21834 25.3843 2.30428 25.1687 2.34726 25.1256C2.56213 24.7375 2.81999 24.3495 3.07783 23.9615L3.76542 24.2633C4.32409 24.522 4.96872 24.8238 5.65631 24.9531C5.69928 24.9531 5.74226 24.9531 5.74226 24.9531C5.69928 25.1256 5.65631 25.298 5.65631 25.4274C5.65631 25.9879 5.65631 26.5483 5.74226 27.1088C5.69928 27.1088 5.69928 27.1088 5.65631 27.1519C5.05466 27.4969 4.1522 27.0657 3.8084 26.8933C3.2927 26.5483 2.81998 26.2034 2.39024 25.7292ZM12.1455 25.5998C12.0165 25.8154 11.8447 26.0741 11.7587 26.3759L11.7157 26.419C11.6728 26.4621 11.6298 26.4621 11.5868 26.4621C11.5438 26.4621 11.4579 26.4621 11.4149 26.4621C10.6414 26.3328 9.86782 26.031 9.2232 25.5567C9.0513 25.4274 8.8794 25.298 8.79345 25.1256C8.7075 24.9531 8.7075 24.6513 8.79345 24.3064C8.92237 24.2202 9.0513 24.1339 9.18023 24.0046C9.52402 23.7028 9.73889 23.4441 9.86782 23.0992C9.99674 22.7974 10.0397 22.4956 10.0397 22.1507V21.892C10.0397 21.892 10.0397 21.892 10.0397 21.8489C10.5124 22.0213 11.0281 22.1938 11.5438 22.2369C11.6728 22.2369 11.8017 22.2369 11.9306 22.2369C12.1884 22.2369 12.4033 22.1938 12.6612 22.1507C12.7471 22.8405 13.1339 23.5735 13.4777 24.1771C12.876 24.522 12.4463 25.1256 12.1455 25.5998ZM3.50758 21.0297C4.10922 20.1243 4.71086 19.5638 5.35548 19.3914C6.5158 20.1243 7.76206 20.8141 9.00832 21.4177C9.00832 21.6333 9.00832 21.7195 9.00832 21.8489V22.1076C9.00832 22.3231 8.96535 22.5387 8.92238 22.6681C8.8794 22.7974 8.75048 22.9699 8.53561 23.1423C7.80504 23.7459 6.81662 24.0477 5.87118 23.8753C5.31251 23.789 4.75384 23.5303 4.23815 23.2717L2.69106 22.5387C2.90593 22.0213 3.16378 21.504 3.50758 21.0297ZM3.29271 27.8418C3.93733 28.1867 4.53897 28.4023 5.09764 28.4023C5.39846 28.4023 5.65631 28.3591 5.91415 28.2729C5.95713 28.4454 5.95713 28.5747 6.0001 28.7472C6.08605 29.1352 6.21498 29.5663 6.47282 29.9113C6.60175 30.0837 6.77365 30.2562 6.98852 30.3855C6.94554 30.5149 6.90257 30.6442 6.85959 30.7304C6.73067 31.0322 6.64472 31.0753 6.60175 31.0753C6.55878 31.0753 6.42985 31.0753 6.38688 31.0753C4.83979 30.8167 3.37865 29.8681 2.34726 28.4885C2.30428 28.4023 2.17536 28.2729 2.17536 28.1867C2.17536 28.0573 2.26131 27.8418 2.39024 27.6693C2.43321 27.5831 2.47619 27.4969 2.51916 27.4106C2.77701 27.54 3.03486 27.6693 3.29271 27.8418ZM2.34726 32.8861C2.21834 32.7137 2.04644 32.455 2.08942 32.2394C2.08942 32.1101 2.21834 31.9376 2.30429 31.7652L2.99188 30.6442C3.2927 30.8598 3.59353 31.0753 3.89435 31.2478C3.89435 31.3771 3.93733 31.4634 3.93733 31.5496C3.93733 31.6789 3.9803 31.8083 3.9803 31.8945C3.93732 32.1101 3.89435 32.4119 3.93733 32.7137C4.02327 33.1448 4.28112 33.4466 4.53897 33.7053C5.01169 34.1796 5.57036 34.5676 6.172 34.9125C6.00011 35.085 5.78523 35.2143 5.57036 35.2574C5.22656 35.3005 4.79682 35.1712 4.23815 34.7832C3.55055 34.3089 2.86295 33.6191 2.34726 32.8861ZM7.93396 36.6371C7.11744 36.7664 6.25795 36.8095 5.44144 36.7664C5.14061 36.7664 4.79681 36.7233 4.53897 36.594C4.1522 36.4646 3.85137 36.1197 3.67947 35.7317C4.32409 36.1628 4.92574 36.3784 5.48441 36.3784C5.57036 36.3784 5.6563 36.3784 5.78523 36.3784C6.38687 36.2922 6.94555 35.9473 7.24637 35.4299C7.84801 35.6455 8.44966 35.8179 9.09428 35.9041C9.0513 36.0766 9.00833 36.2059 8.92238 36.2922C8.75048 36.5077 8.32073 36.594 7.93396 36.6371ZM10.4695 34.6538C10.2546 34.8263 9.86782 34.8263 9.60997 34.7832C8.01991 34.6969 6.47282 34.0071 5.35548 32.9293C5.22656 32.7999 5.09764 32.6275 5.05466 32.4981C5.05466 32.4119 5.05466 32.2394 5.09764 32.1101C5.09764 32.0239 5.14061 31.8945 5.09764 31.8083C5.48441 31.9376 5.87118 32.067 6.25795 32.1101C6.38688 32.1101 6.47283 32.1532 6.60175 32.1532C6.73067 32.1532 6.81662 32.1532 6.94555 32.1101C7.54719 31.9376 7.80504 31.334 7.89099 31.1185C7.93396 30.9891 7.97694 30.9029 8.01991 30.7735C8.32074 30.8598 8.62156 30.9029 8.87941 30.946C8.96535 31.4203 9.18023 31.8083 9.3951 32.1532C9.86782 32.843 10.3835 33.4035 10.9422 33.7915C10.8992 33.8778 10.8562 33.964 10.8133 34.0502C10.7273 34.3089 10.5984 34.5245 10.4695 34.6538ZM14.2512 32.6706C13.8645 33.2742 12.962 33.4035 12.2744 33.1879C11.5868 32.9724 10.9422 32.4119 10.3835 31.5065C10.2546 31.334 10.1686 31.1616 10.0827 30.9891C10.4265 30.9891 10.7703 30.946 11.1141 30.946C11.3719 30.9029 12.0166 30.8598 12.5322 30.5149C13.005 31.2909 13.6066 31.9807 14.2942 32.5843C14.2512 32.6275 14.2512 32.6706 14.2512 32.6706ZM16.2281 32.6275C14.638 31.7652 13.4347 30.3424 12.8331 28.6609C12.6182 28.0142 12.5752 27.4969 12.6612 27.0657C12.7471 26.7639 12.919 26.4621 13.0909 26.1603C13.4777 25.5136 13.8215 25.2118 14.1223 25.2118C15.0677 26.4621 16.314 27.54 17.6892 28.2729C17.4314 29.7819 16.9157 31.2478 16.2281 32.6275ZM18.8495 20.5123C19.4512 22.7974 19.709 25.1256 19.6231 27.4537C19.6231 27.6693 19.5801 27.7987 19.6231 27.7987C19.5801 27.7987 19.5371 27.7987 19.4941 27.7555C17.4743 27.0657 15.6694 25.5998 14.5521 23.7028C14.2512 23.1854 13.7355 22.3231 13.8645 21.8489C14.4231 21.5902 14.8958 21.2022 15.2826 20.7279C15.7553 20.1243 16.357 18.874 16.271 17.7961C17.0016 17.9686 17.6462 18.2273 18.076 18.7015C18.4198 19.1758 18.6346 19.7794 18.8495 20.5123ZM23.9205 29.5663C23.8775 29.5663 23.8775 29.6095 23.8346 29.6095V29.5663C23.5767 28.9196 23.3189 28.1005 23.2759 27.3244C23.19 25.9447 23.7916 24.4789 24.9519 23.2285C25.4246 22.7112 25.9403 22.1938 26.6709 21.6333C26.7998 21.5471 26.9287 21.4177 27.1006 21.2884C27.3155 21.0728 27.6163 20.8141 27.9172 20.6417C27.9601 20.6417 27.9601 20.6417 28.0031 20.6417C28.0891 20.5986 28.175 20.5555 28.218 20.4692C28.261 20.4692 28.261 20.4261 28.3039 20.4261C28.3899 20.4261 28.4329 20.4261 28.5188 20.383C29.2064 20.383 30.1948 21.4177 30.4956 22.1507C30.8824 23.0561 30.7965 24.2202 30.2378 25.0393C29.851 25.5998 29.2923 26.0741 28.7766 26.4621C27.2296 27.6262 25.5965 28.6609 23.9205 29.5663ZM37.7154 28.6609C37.8013 28.8765 37.7583 29.2214 37.5435 29.6957C37.1137 30.6873 36.641 31.6789 35.8245 32.3257C35.6096 32.4981 35.3947 32.6275 35.2228 32.6275C35.008 32.6706 34.7071 32.5843 34.4493 32.5412C33.4609 32.2825 32.5584 31.8945 31.6559 31.4203C31.57 31.3771 31.3981 31.2047 31.3122 31.0753C31.3981 30.8598 31.484 30.6011 31.527 30.3424C31.7849 30.4717 32.0427 30.5149 32.2576 30.558H32.3006C32.7303 30.558 33.0741 30.3855 33.332 30.2562C34.1914 29.825 34.965 29.1783 35.5666 28.4023C35.6096 28.316 35.6956 28.2298 35.7385 28.1436C36.1253 28.3591 36.598 28.4885 37.1137 28.5747C37.3716 28.6178 37.5435 28.6178 37.7154 28.6609ZM40.9814 31.5496C41.0244 31.6358 41.1104 31.7221 41.1533 31.8083C41.3252 32.0239 41.4542 32.2394 41.4971 32.4119C41.5401 32.6706 41.3682 33.0155 41.2393 33.2311C40.4228 34.5676 39.0906 35.6455 37.5864 36.1197C37.4145 36.1628 37.1997 36.2491 37.0707 36.2059C36.9848 36.1628 36.8559 36.0766 36.7269 35.9904C36.641 35.9473 36.5551 35.861 36.4691 35.8179C36.7699 35.5592 37.0278 35.2574 37.2856 34.9556C37.4145 34.7832 37.5435 34.5676 37.5864 34.3089C37.7154 33.7053 37.2856 33.1879 37.1567 33.0155C37.0707 32.9293 36.9848 32.843 36.8989 32.7568C37.1137 32.5412 37.2856 32.3257 37.4575 32.067C37.7154 32.1532 38.0162 32.1963 38.274 32.1963C38.4459 32.1963 38.6178 32.1963 38.7897 32.1532C39.6922 32.067 40.4228 31.8514 40.9814 31.5496ZM34.3204 26.6777C34.4493 26.8933 34.6212 27.1519 34.8361 27.4106C34.8361 27.4106 34.8361 27.4537 34.8361 27.4969C34.8361 27.54 34.8361 27.5831 34.8361 27.6262C34.8361 27.6693 34.7501 27.7555 34.7501 27.7555C34.2774 28.4023 33.6328 28.9196 32.9022 29.2645C32.7303 29.3508 32.5154 29.437 32.3435 29.437C32.1287 29.437 31.9138 29.3077 31.613 29.049C31.613 28.8765 31.57 28.7472 31.527 28.5747C31.4411 28.1436 31.2692 27.7987 31.0543 27.54C30.8394 27.2813 30.5816 27.1088 30.3237 26.9364L30.1089 26.807C30.1089 26.807 30.1089 26.807 30.0659 26.807C30.4527 26.4621 30.8394 26.1172 31.0973 25.6429C31.3122 25.3411 31.4411 24.9962 31.57 24.6513C31.9997 24.8238 32.5154 24.8669 33.0311 24.8669C33.289 24.8669 33.5039 24.8669 33.7187 24.8238C33.7187 25.5567 34.0625 26.2034 34.3204 26.6777ZM26.2411 32.2394C25.7254 31.2909 25.5106 30.5149 25.6825 29.825C26.8858 29.1352 28.0461 28.3591 29.1634 27.54C29.3783 27.6262 29.4213 27.6693 29.5502 27.7555L29.7651 27.8849C29.937 28.0142 30.1089 28.1005 30.2378 28.2298C30.3237 28.3591 30.4097 28.5316 30.4527 28.7903C30.6675 29.6957 30.4097 30.7304 29.851 31.4634C29.5072 31.8945 29.0345 32.2825 28.5618 32.6275L27.2296 33.6622C26.8428 33.2311 26.542 32.7568 26.2411 32.2394ZM29.5502 35.473C29.4642 35.4299 29.3353 35.2574 29.2923 35.2143C29.0345 34.8263 28.8196 34.4383 28.6047 34.0071L29.2064 33.576C29.7221 33.1879 30.2808 32.7568 30.7105 32.1963C30.7535 32.1532 30.7535 32.1532 30.7535 32.1101C30.8824 32.2394 31.0543 32.3688 31.1402 32.4119C31.613 32.6706 32.1287 32.9293 32.6444 33.1448C32.6444 33.1879 32.6444 33.1879 32.6444 33.2311C32.6444 33.964 31.8708 34.5245 31.57 34.7401C31.0543 35.085 30.4956 35.3005 29.894 35.473C29.851 35.4299 29.6361 35.473 29.5502 35.473ZM32.2576 36.6802C32.1716 36.6802 31.9997 36.7233 31.9138 36.6802C31.7849 36.6371 31.6559 36.4646 31.527 36.2491C31.484 36.1628 31.4411 36.1197 31.3551 36.0335C31.613 35.9041 31.8708 35.7748 32.1287 35.6023C33.0741 34.9987 33.5898 34.2658 33.7187 33.4466C33.8476 33.4897 34.0195 33.5329 34.1485 33.576C34.4493 33.6622 34.7501 33.7053 35.0509 33.7053C35.1799 33.7053 35.3088 33.7053 35.3947 33.6622C35.6096 33.6191 35.8245 33.5329 36.0394 33.4035C36.1253 33.4897 36.2113 33.576 36.2972 33.7053C36.5121 33.964 36.5121 34.0933 36.5121 34.0933C36.5121 34.1365 36.4261 34.2658 36.3832 34.2658C35.5237 35.5592 33.9766 36.4215 32.2576 36.6802ZM36.1683 38.7928C35.9534 38.8359 35.6526 38.8359 35.4807 38.7066C35.3518 38.6203 35.2658 38.4479 35.1799 38.2754L34.5352 37.1113C34.879 36.982 35.1799 36.8095 35.4807 36.594C35.5666 36.6371 35.6956 36.6802 35.7815 36.6802C35.9104 36.7233 36.0394 36.7664 36.0823 36.8095C36.2542 36.9389 36.4691 37.1545 36.7699 37.2407C36.8988 37.2838 37.0278 37.2838 37.1997 37.2838C37.4575 37.2838 37.7154 37.1976 37.9732 37.1545C38.6178 36.9389 39.2195 36.6371 39.7781 36.2922C39.8641 36.5077 39.8641 36.7664 39.7781 36.982C39.6492 37.3269 39.3054 37.6287 38.7468 37.9305C37.9732 38.4048 37.0708 38.6635 36.1683 38.7928ZM42.0988 35.5592C41.8409 36.3353 41.4542 37.1113 41.0244 37.8012C40.8525 38.0599 40.6806 38.3617 40.4657 38.5341C40.1649 38.7928 39.7352 38.9221 39.3054 38.879C39.8211 38.5772 40.5517 38.1461 40.8525 37.3269C41.0674 36.7664 40.9814 36.1197 40.6806 35.5592C41.1533 35.1281 41.5831 34.6538 41.9699 34.1365C42.0988 34.2658 42.1847 34.352 42.2277 34.4814C42.3136 34.8263 42.2277 35.2143 42.0988 35.5592ZM41.5401 28.1436C41.8839 28.7903 41.5831 29.6526 41.1104 30.1268C40.5947 30.6011 39.8211 30.9029 38.7468 31.0322C38.5319 31.0322 38.36 31.0753 38.1451 31.0322C38.317 30.7304 38.4459 30.3855 38.5749 30.0837C38.6608 29.825 38.9187 29.2645 38.8757 28.6609C39.7781 28.6178 40.6806 28.4023 41.5401 28.0573C41.5401 28.1005 41.5401 28.1436 41.5401 28.1436ZM42.4426 26.3328C40.9814 27.3244 39.1335 27.7555 37.3716 27.4969C36.684 27.4106 36.2113 27.1951 35.9104 26.8933C35.6526 26.6777 35.4807 26.3759 35.3088 26.1172C34.922 25.4705 34.7931 25.0393 34.965 24.7375C36.5121 24.4789 38.0162 23.8753 39.3054 22.9699C40.4657 23.9615 41.4971 25.0825 42.4426 26.3328ZM39.4773 20.9435C39.6492 21.0728 39.7352 21.1591 39.7781 21.1159C39.7781 21.1591 39.7352 21.1591 39.6922 21.2022C38.1451 22.6681 35.9964 23.5735 33.8047 23.7028C33.1601 23.7459 32.1716 23.789 31.8278 23.4441C31.8278 22.8405 31.7419 22.2369 31.527 21.6764C31.2262 20.9866 30.4097 19.8656 29.3783 19.4345C29.894 18.874 30.4097 18.4429 31.0113 18.2704C31.57 18.1411 32.2146 18.2273 32.9882 18.3997C35.2658 18.9171 37.4575 19.7794 39.4773 20.9435ZM30.7105 17.1925C29.5072 17.4943 28.6477 18.486 28.0031 19.3051C27.4444 18.1411 26.7568 17.0632 25.9403 16.0716C27.5734 16.6321 29.2494 16.977 30.9684 17.1494C30.9254 17.1494 30.8394 17.1925 30.7105 17.1925Z" fill="#21475A" stroke="#21475A"/>
<path d="M25.9394 10.5278C26.4359 10.8426 26.8943 11 27.3144 11C27.3526 11 27.3908 11 27.429 11C28.0784 10.9607 28.6513 10.5672 28.8805 9.97699C29.1861 9.15071 28.9187 7.61619 27.9256 7.14403C26.9707 6.67187 25.9012 7.4588 25.4046 8.08835C25.0608 8.52116 24.9462 8.99332 25.0226 9.42613C25.1372 9.8196 25.4046 10.2131 25.9394 10.5278ZM26.2067 8.67855C26.5123 8.28508 27.1235 7.85227 27.5054 8.049C27.8874 8.24573 28.1166 9.15071 27.9256 9.62287C27.8492 9.8196 27.62 9.97699 27.3526 9.97699C27.0853 9.97699 26.7797 9.89829 26.4359 9.66221C26.1685 9.50483 26.0157 9.34744 26.0157 9.19005C25.9775 9.07201 26.0539 8.87528 26.2067 8.67855Z" fill="#21475A" stroke="#21475A"/>
<path d="M32.1869 5.24069C31.371 5.63641 30.9121 6.52677 31.0141 7.3182C31.167 8.25803 32.0339 9 33.0027 9C33.8186 9 34.5324 8.55482 34.8384 7.81285C35.1953 7.02142 34.9403 6.03213 34.2775 5.48802C33.7166 4.94391 32.9007 4.84498 32.1869 5.24069ZM33.4616 6.42784C33.7676 6.67517 33.7676 7.12035 33.6656 7.36767C33.6146 7.56553 33.4106 7.71392 33.0537 7.76339C32.7477 7.76339 32.3908 7.4666 32.3398 7.16981C32.2888 6.82356 32.5438 6.52677 32.7987 6.37838C32.9007 6.32891 33.0027 6.27945 33.1047 6.27945C33.2067 6.27945 33.3086 6.32891 33.4616 6.42784Z" fill="#21475A" stroke="#21475A"/>
<path d="M28.0864 3.82873C28.2214 3.87155 28.4464 4 28.6715 4C28.7165 4 28.7615 4 28.7615 4C28.9865 3.95718 29.1665 3.91436 29.3466 3.74309C29.9316 3.27209 30.1567 2.62981 29.8866 2.03035C29.6616 1.43089 29.0765 0.959886 28.4464 1.0027C28.1764 1.0027 27.4563 1.13116 27.0962 2.07317C26.9612 2.45853 26.9612 2.80108 27.1412 3.14363C27.4113 3.529 27.8613 3.74309 28.0864 3.82873ZM28.2664 2.45853C28.3114 2.28726 28.4014 2.07317 28.5364 2.11599C28.6265 2.11599 28.8065 2.24444 28.8965 2.41572C28.9415 2.45853 28.9865 2.67263 28.7615 2.92954C28.7165 2.92954 28.6715 2.88672 28.6265 2.88672C28.5364 2.8439 28.3114 2.75826 28.2664 2.67263C28.2214 2.62981 28.2214 2.54417 28.2664 2.45853Z" fill="#21475A" stroke="#21475A"/>
</svg>
