<svg width="24" height="24" viewBox="0 0 24 24" fill="none" xmlns="http://www.w3.org/2000/svg">
<path fill-rule="evenodd" clip-rule="evenodd" d="M2.97491 5.97491C2.97491 5.42263 3.42263 4.97491 3.97491 4.97491H19.9749C20.5272 4.97491 20.9749 5.42263 20.9749 5.97491C20.9749 6.5272 20.5272 6.97491 19.9749 6.97491H3.97491C3.42263 6.97491 2.97491 6.5272 2.97491 5.97491ZM2.97491 11.9749C2.97491 11.4226 3.42263 10.9749 3.97491 10.9749H19.9749C20.5272 10.9749 20.9749 11.4226 20.9749 11.9749C20.9749 12.5272 20.5272 12.9749 19.9749 12.9749H3.97491C3.42263 12.9749 2.97491 12.5272 2.97491 11.9749ZM2.97491 17.9749C2.97491 17.4226 3.42263 16.9749 3.97491 16.9749H19.9749C20.5272 16.9749 20.9749 17.4226 20.9749 17.9749C20.9749 18.5272 20.5272 18.9749 19.9749 18.9749H3.97491C3.42263 18.9749 2.97491 18.5272 2.97491 17.9749Z" fill="#21475A"/>
</svg>
