<svg width="32" height="32" viewBox="0 0 32 32" fill="none" xmlns="http://www.w3.org/2000/svg">
<circle cx="16" cy="16" r="16" fill="#FAFAFA"/>
<path d="M14.5455 13.8182C14.9471 13.8182 15.2727 14.1438 15.2727 14.5455V19.2727C15.2727 19.6744 14.9471 20 14.5455 20C14.1438 20 13.8182 19.6744 13.8182 19.2727V14.5455C13.8182 14.1438 14.1438 13.8182 14.5455 13.8182Z" fill="#21475A"/>
<path d="M18.1818 14.5455C18.1818 14.1438 17.8562 13.8182 17.4545 13.8182C17.0529 13.8182 16.7273 14.1438 16.7273 14.5455V19.2727C16.7273 19.6744 17.0529 20 17.4545 20C17.8562 20 18.1818 19.6744 18.1818 19.2727V14.5455Z" fill="#21475A"/>
<path fill-rule="evenodd" clip-rule="evenodd" d="M14.2869 8C14.0213 8 13.7768 8.14478 13.6492 8.37768L12.6602 10.1818H8.72727C8.32561 10.1818 8 10.5074 8 10.9091C8 11.3108 8.32561 11.6364 8.72727 11.6364H9.81818V23.2727C9.81818 23.6744 10.1438 24 10.5455 24H21.4545C21.8562 24 22.1818 23.6744 22.1818 23.2727V11.6364H23.2727C23.6744 11.6364 24 11.3108 24 10.9091C24 10.5074 23.6744 10.1818 23.2727 10.1818H19.344L18.3778 8.38312C18.2511 8.14719 18.0049 8 17.7371 8H14.2869ZM17.6929 10.1818L17.3022 9.45455H14.7176L14.3189 10.1818H17.6929ZM11.2727 11.6364V22.5455H20.7273V11.6364H11.2727Z" fill="#21475A"/>
</svg>
