<svg width="32" height="32" viewBox="0 0 32 32" fill="none" xmlns="http://www.w3.org/2000/svg">
<circle cx="16" cy="16" r="16" fill="#FAFAFA"/>
<path d="M13.5 17C13.5 17.5523 13.0523 18 12.5 18C11.9477 18 11.5 17.5523 11.5 17C11.5 16.4477 11.9477 16 12.5 16C13.0523 16 13.5 16.4477 13.5 17Z" fill="#21475A"/>
<path fill-rule="evenodd" clip-rule="evenodd" d="M13.8268 19.9374C13.5186 19.4844 12.9022 19.3634 12.4453 19.6679C11.9858 19.9743 11.8616 20.5952 12.168 21.0547L13 20.5C12.168 21.0547 12.168 21.0547 12.168 21.0547L12.169 21.0563L12.1702 21.058L12.1728 21.0618L12.1792 21.0712L12.1968 21.0964C12.2107 21.1159 12.2289 21.1409 12.2515 21.1705C12.2965 21.2297 12.3594 21.3079 12.4401 21.3987C12.6009 21.5796 12.8369 21.8152 13.15 22.05C13.7792 22.5219 14.7345 23 16 23C17.2655 23 18.2208 22.5219 18.85 22.05C19.1631 21.8152 19.3991 21.5796 19.5599 21.3987C19.6407 21.3079 19.7035 21.2297 19.7486 21.1705C19.7711 21.1409 19.7894 21.1159 19.8032 21.0964L19.8209 21.0712L19.8273 21.0618L19.8299 21.058L19.831 21.0563C19.831 21.0563 19.8321 21.0547 19 20.5L19.8321 21.0547C20.1384 20.5952 20.0142 19.9743 19.5547 19.6679C19.0978 19.3634 18.4814 19.4844 18.1733 19.9374C18.1714 19.94 18.1663 19.9472 18.1577 19.9584C18.1403 19.9813 18.1094 20.0202 18.0651 20.07C17.9759 20.1704 17.8369 20.3098 17.65 20.45C17.2792 20.7281 16.7345 21 16 21C15.2655 21 14.7208 20.7281 14.35 20.45C14.1631 20.3098 14.0241 20.1704 13.9349 20.07C13.8907 20.0202 13.8597 19.9813 13.8423 19.9584C13.8358 19.9499 13.8313 19.9437 13.8287 19.9401L13.8268 19.9374ZM18.169 19.9437C18.1704 19.9416 18.1718 19.9395 18.1733 19.9374L18.1713 19.9403L18.1698 19.9426" fill="#21475A"/>
<path d="M20.5 17C20.5 17.5523 20.0523 18 19.5 18C18.9477 18 18.5 17.5523 18.5 17C18.5 16.4477 18.9477 16 19.5 16C20.0523 16 20.5 16.4477 20.5 17Z" fill="#21475A"/>
<path fill-rule="evenodd" clip-rule="evenodd" d="M25.5 11.5H22.4334C21.9867 8.16755 19.3415 5.5 16 5.5C12.6585 5.5 10.0133 8.16755 9.56658 11.5H6.50001C6.20693 11.5 5.9286 11.6286 5.7386 11.8517C5.54861 12.0749 5.46607 12.3701 5.5128 12.6595L7.6128 25.6595C7.69106 26.1439 8.10928 26.5 8.60001 26.5H23.4C23.8907 26.5 24.309 26.1439 24.3872 25.6595L26.4872 12.6595C26.5339 12.3701 26.4514 12.0749 26.2614 11.8517C26.0714 11.6286 25.7931 11.5 25.5 11.5ZM7.67451 13.5H24.3255L22.5486 24.5H9.45143L7.67451 13.5ZM16 7.5C13.8859 7.5 12.0116 9.1649 11.5889 11.5H20.4111C19.9884 9.1649 18.1141 7.5 16 7.5Z" fill="#21475A"/>
</svg>
