<svg width="32" height="32" viewBox="0 0 32 32" fill="none" xmlns="http://www.w3.org/2000/svg">
<circle cx="16" cy="16" r="16" fill="#FAFAFA"/>
<path fill-rule="evenodd" clip-rule="evenodd" d="M5 13.5C5 9.91017 7.91015 7 11.5 7C13.247 7 14.8329 7.68982 16 8.80968C17.1671 7.68982 18.753 7 20.5 7C24.0898 7 27 9.91017 27 13.5C27 16.6341 25.164 19.4994 23.0231 21.6615C20.8724 23.8335 18.2421 25.4718 16.3154 26.1121C16.1106 26.1801 15.8894 26.1801 15.6846 26.1121C13.7579 25.4718 11.1276 23.8335 8.97692 21.6615C6.83596 19.4994 5 16.6341 5 13.5ZM11.5 9C9.01472 9 7 11.0147 7 13.5C7 15.8659 8.41404 18.2506 10.3981 20.2543C12.2445 22.119 14.4368 23.5021 16 24.1011C17.5632 23.5021 19.7555 22.119 21.6019 20.2543C23.586 18.2506 25 15.8659 25 13.5C25 11.0147 22.9853 9 20.5 9C18.9789 9 17.6337 9.75379 16.8176 10.9127C16.6303 11.1787 16.3253 11.3369 16 11.3369C15.6747 11.3369 15.3697 11.1787 15.1824 10.9127C14.3663 9.75379 13.0211 9 11.5 9Z" fill="#21475A"/>
</svg>
