<svg width="32" height="32" viewBox="0 0 32 32" fill="none" xmlns="http://www.w3.org/2000/svg">
<circle cx="16" cy="16" r="16" fill="#FAFAFA"/>
<path fill-rule="evenodd" clip-rule="evenodd" d="M16 7C14.3431 7 13 8.34315 13 10C13 11.6569 14.3431 13 16 13C17.6569 13 19 11.6569 19 10C19 8.34315 17.6569 7 16 7ZM11 10C11 7.23858 13.2386 5 16 5C18.7614 5 21 7.23858 21 10C21 12.7614 18.7614 15 16 15C13.2386 15 11 12.7614 11 10ZM6 26C6 20.4772 10.4772 16 16 16C21.5228 16 26 20.4772 26 26C26 26.5523 25.5523 27 25 27C24.4477 27 24 26.5523 24 26C24 21.5817 20.4183 18 16 18C11.5817 18 8 21.5817 8 26C8 26.5523 7.55228 27 7 27C6.44772 27 6 26.5523 6 26Z" fill="#21475A"/>
</svg>
